<?xml version="1.0" encoding="UTF-8"?>
<!DOCTYPE svg PUBLIC "-//W3C//DTD SVG 1.1//EN" "http://www.w3.org/Graphics/SVG/1.1/DTD/svg11.dtd">
<!-- Creator: CorelDRAW X6 -->
<svg xmlns="http://www.w3.org/2000/svg" xml:space="preserve" width="10.3928in" height="4.27766in" version="1.1" style="shape-rendering:geometricPrecision; text-rendering:geometricPrecision; image-rendering:optimizeQuality; fill-rule:evenodd; clip-rule:evenodd"
viewBox="0 0 10397 4279"
 xmlns:xlink="http://www.w3.org/1999/xlink">
 <defs>
  <style type="text/css">
   <![CDATA[
    .fil0 {fill:#878787}
    .fil1 {fill:#E73432}
   ]]>
  </style>
 </defs>
 <g id="Layer_x0020_1">
  <metadata id="CorelCorpID_0Corel-Layer"/>
  <g id="__x0023_878787ff">
   <path class="fil0" d="M1163 0c130,1 260,-1 390,1 -1,726 -1,1452 0,2178 -328,4 -656,1 -983,2 -98,-1 -200,8 -292,-31 -161,-62 -278,-227 -278,-401 0,-227 -1,-454 0,-681 -7,-222 182,-427 404,-439 253,-6 507,4 759,-5 -2,-208 -2,-416 0,-625m-772 1153c-1,167 -1,334 0,501 -3,73 63,139 136,137 212,0 424,2 636,-1 -2,-257 -1,-514 -1,-771 -212,0 -423,-1 -635,0 -71,-2 -138,62 -136,134z"/>
   <path class="fil0" d="M1789 1c130,0 260,-1 390,1 -1,130 -1,260 0,390 -130,4 -260,2 -390,1 -1,-130 -1,-261 0,-392z"/>
   <path class="fil0" d="M4205 0c130,2 260,-2 390,2 -3,127 2,255 -2,382l-5 7c-127,4 -255,1 -383,1 -1,-131 -2,-261 0,-392z"/>
   <path class="fil0" d="M1788 652c-7,-31 28,-22 46,-24 115,1 229,0 344,0 1,517 -1,1034 1,1552 -130,3 -261,1 -391,1 -1,-510 -1,-1020 0,-1530z"/>
   <path class="fil0" d="M2415 1056c1,-223 197,-423 420,-426 378,-1 756,-1 1134,0 -3,587 0,1174 -2,1761 -4,213 -185,405 -398,420 -148,5 -296,0 -444,2 -37,7 -55,-32 -77,-54 -89,-113 -187,-220 -272,-336 218,0 436,0 654,0 63,4 126,-40 141,-102 9,-46 4,-92 3,-138 -247,-1 -495,2 -742,-1 -220,-4 -413,-198 -418,-417 -2,-236 -1,-472 0,-708m449 -12c-40,27 -61,75 -59,123 0,162 -1,324 1,486 -2,75 65,141 140,137 210,1 420,-1 631,1 4,-256 -1,-513 3,-769 -188,-8 -376,-1 -563,-3 -51,1 -109,-8 -152,26z"/>
   <path class="fil0" d="M4202 632c130,-7 261,-1 392,-3 0,517 -2,1033 1,1550 -130,6 -260,1 -390,3 -4,-517 1,-1033 -3,-1550z"/>
   <path class="fil0" d="M6408 3489c28,-11 63,-12 88,5 38,35 2,112 -50,101 -55,7 -88,-80 -38,-106z"/>
   <path class="fil0" d="M7519 3490c28,0 55,0 83,0 3,188 4,377 -1,565 -28,0 -56,-1 -84,-1 0,-188 -1,-376 1,-564z"/>
   <path class="fil0" d="M5839 3505c30,0 59,0 89,1 -1,128 -1,256 -1,384 2,25 1,66 34,70 55,11 111,6 167,7 88,-1 179,3 265,-19 74,-25 137,-72 208,-105 -13,-28 -39,-48 -70,-49 -73,-6 -145,-2 -218,-5 -3,-28 -7,-56 -9,-85 80,-1 160,-3 241,0 54,2 111,27 135,78 17,32 18,69 19,104 -28,14 -56,30 -83,46 35,38 90,31 137,33 74,-2 149,4 224,-3 22,0 37,-24 37,-44 4,-47 1,-94 2,-142 29,0 59,0 89,0 3,50 -2,99 4,149 3,30 37,39 63,39 50,1 101,4 149,-8 37,-51 15,-120 19,-179 30,-1 61,-1 92,0 -6,79 20,173 -40,238 -33,42 -90,40 -139,39 -64,-3 -136,13 -191,-30 -66,48 -150,25 -226,30 -71,-3 -146,11 -212,-21 -29,-14 -33,-49 -43,-76 -77,31 -147,85 -232,91 -101,10 -203,4 -305,6 -60,0 -128,-2 -176,-42 -30,-27 -29,-71 -30,-108 1,-133 0,-267 1,-400z"/>
   <path class="fil0" d="M6800 3592c33,-9 89,-12 95,34 11,48 -47,80 -86,58 -38,-13 -46,-74 -9,-92z"/>
   <path class="fil0" d="M6967 3593c33,-10 89,-12 97,33 11,54 -60,87 -98,53 -30,-19 -30,-68 1,-86z"/>
   <path class="fil0" d="M7245 3592c34,-10 89,-10 98,34 12,43 -32,86 -75,76 -56,1 -75,-89 -23,-110z"/>
   <path class="fil0" d="M4606 3759c30,-56 102,-61 158,-55 51,3 97,41 111,90 24,81 18,166 19,249 7,74 -28,149 -90,191 -70,55 -163,45 -246,44 -4,-30 -8,-61 -12,-91 69,-3 149,16 208,-31 31,-23 41,-62 53,-97 -70,-12 -163,-6 -205,-77 -36,-68 -30,-156 4,-224m70 68c-6,31 -9,65 1,96 23,47 84,42 128,40 -2,-44 4,-89 -8,-132 -15,-52 -104,-56 -121,-4z"/>
   <path class="fil0" d="M5042 3777c29,0 59,0 88,0 3,53 -5,107 6,159 18,39 68,27 102,30 134,-5 269,8 403,-6 52,-43 21,-123 29,-182 29,-1 58,-1 87,-2 -2,67 12,138 -13,203 -20,44 -65,79 -115,75 -154,0 -308,1 -462,0 -53,3 -99,-37 -116,-85 -17,-63 -8,-128 -9,-192z"/>
   <path class="fil0" d="M8811 3778c30,-1 60,-1 90,3 -1,50 -6,100 3,150 14,54 108,70 128,14 7,-55 2,-111 3,-166 28,-1 57,-1 85,-2 2,47 -1,94 2,140 3,58 92,86 127,39 13,-58 4,-119 6,-177 29,-1 58,-1 87,-2 -4,87 25,198 -49,264 -60,49 -143,17 -193,-30 -32,25 -66,56 -109,54 -47,-1 -82,-36 -115,-64 -33,22 -65,53 -107,54 -87,4 -174,-2 -261,3 11,68 -9,145 -69,185 -74,54 -169,35 -253,38 -75,2 -150,-38 -185,-105 -51,-94 -33,-205 -34,-307 29,0 59,1 89,1 1,68 -2,136 1,203 1,62 57,110 116,115 55,4 110,4 165,0 51,-3 102,-58 79,-109 -52,-31 -117,-18 -175,-21 -3,-28 -6,-55 -5,-83 18,-11 41,-5 61,-7 143,1 287,0 430,1 29,-1 72,1 81,-34 11,-51 4,-103 4,-154z"/>
   <path class="fil0" d="M9506 3778c31,-1 62,0 93,1 -2,88 0,176 -1,265 2,88 -49,177 -129,214 -65,32 -140,19 -210,20 -5,-30 -9,-59 -14,-89 66,-7 138,7 198,-27 39,-19 64,-61 63,-104 2,-93 0,-186 0,-280z"/>
   <path class="fil0" d="M9851 3777c29,0 59,0 89,1 2,49 -3,99 4,148 16,32 56,39 89,40 69,2 139,2 208,0 23,-2 58,-1 62,-32 12,-51 4,-104 6,-156 28,0 56,0 84,1 -3,80 27,177 -37,241 -47,52 -123,31 -184,35 -77,-6 -166,20 -231,-34 2,89 -36,186 -116,232 -67,38 -146,24 -220,26 -5,-31 -10,-61 -15,-92 58,-2 119,8 176,-9 49,-18 86,-66 85,-119 2,-94 -1,-188 1,-281z"/>
   <path class="fil0" d="M7768 3876c9,-42 50,-76 94,-68 0,35 -48,37 -56,68 -6,20 -7,41 -9,61 34,6 85,7 91,50 18,69 -94,91 -122,40 -12,-50 -8,-103 2,-152z"/>
   <path class="fil0" d="M10120 4147c39,-22 117,-11 109,48 -2,58 -86,75 -119,34 -16,-24 -15,-65 10,-82z"/>
   <path class="fil0" d="M5379 4169c32,-13 71,-11 99,11 26,47 -19,110 -72,96 -50,-5 -69,-81 -26,-107z"/>
  </g>
  <g id="__x0023_e73432ff">
   <path class="fil1" d="M4830 0c130,2 260,-1 390,1 0,465 -2,931 1,1396 215,-248 419,-506 630,-758 12,-17 36,-9 53,-12 153,1 307,1 460,0 -210,261 -425,517 -638,776 211,261 428,517 639,777 -168,2 -336,0 -504,1 -182,-220 -364,-441 -546,-661 -31,-37 -59,-75 -94,-109 -3,256 -2,512 -1,768 -130,4 -261,1 -391,2 0,-727 -1,-1455 1,-2182z"/>
   <path class="fil1" d="M8220 0c130,1 261,-1 391,1 -1,726 -1,1452 0,2178 -130,4 -261,1 -391,2 -1,-727 -1,-1454 0,-2182z"/>
   <path class="fil1" d="M6479 867c72,-142 225,-239 384,-239 373,0 747,-1 1121,0 0,517 -2,1034 1,1550 -364,6 -729,1 -1093,3 -89,2 -179,-19 -254,-67 -124,-77 -206,-219 -206,-365 -1,-222 0,-444 -1,-666 -1,-75 13,-150 48,-216m343 286c-2,167 -2,334 0,501 -1,74 65,140 139,136 210,1 420,-1 631,1 4,-257 -2,-514 3,-770 -211,-6 -423,-1 -634,-3 -73,-2 -140,62 -139,135z"/>
   <path class="fil1" d="M8846 1043c7,-219 202,-411 421,-413 375,-2 750,1 1125,-1 7,425 0,850 3,1275 -3,93 7,186 -3,279 -375,0 -750,2 -1125,-1 -221,-3 -416,-196 -422,-416 -1,-241 -1,-481 0,-722m390 110c-1,167 -1,334 0,500 -2,75 67,143 142,137 210,0 419,0 628,0 -1,-258 4,-516 -2,-773 -209,2 -418,0 -627,1 -73,-3 -141,60 -141,134z"/>
   <path class="fil1" d="M1986 3356c107,-26 219,-18 328,-13 -1,29 -2,58 -3,86 -90,1 -180,-6 -269,4 -33,-1 -46,31 -60,54 -28,-7 -55,-17 -81,-28 20,-39 38,-91 86,-104z"/>
   <path class="fil1" d="M1238 3491c28,0 55,-1 83,-1 5,138 -1,277 3,415 2,24 5,59 37,58 50,5 102,7 152,-1 32,-9 27,-47 29,-72 2,-134 -1,-267 1,-400 30,0 60,2 90,5 -3,132 -1,264 -2,397 -2,32 13,70 50,73 58,4 119,7 177,-6 39,-50 16,-120 20,-179 31,-1 61,-1 92,0 -2,57 5,115 -5,172 -13,53 -58,105 -117,104 -56,1 -111,2 -167,0 -34,0 -53,-33 -76,-53 -28,29 -63,55 -106,53 -66,0 -137,9 -199,-20 -44,-20 -66,-70 -63,-116 0,-142 0,-285 0,-427z"/>
   <path class="fil1" d="M2082 3490c28,0 56,0 84,1 0,188 1,376 0,564 -28,0 -56,0 -84,0 -2,-188 -3,-377 0,-565z"/>
   <path class="fil1" d="M4158 3503c34,-17 93,-17 108,26 14,48 -37,93 -83,77 -48,-4 -64,-78 -25,-103z"/>
   <path class="fil1" d="M1785 3592c31,-9 74,-10 94,20 23,45 -22,102 -72,90 -56,0 -74,-90 -23,-110z"/>
   <path class="fil1" d="M2526 3687c20,-19 40,-38 60,-57 97,101 191,204 289,304 24,29 64,32 99,32 102,0 203,0 305,0 26,0 65,-2 71,-34 8,-50 3,-102 3,-153 30,-2 61,-2 91,-2 -3,61 7,124 -8,183 -16,49 -60,94 -114,93 -135,1 -270,1 -405,0 -43,1 -69,-38 -107,-50 -30,22 -59,51 -99,50 -96,3 -193,1 -289,1 -4,-30 -9,-59 -13,-88 100,-1 201,4 301,-2 30,0 33,-43 15,-59 -63,-75 -138,-140 -198,-217z"/>
   <path class="fil1" d="M224 3712c40,-18 112,-5 102,52 -3,61 -98,74 -124,23 -11,-25 -8,-64 21,-75z"/>
   <path class="fil1" d="M4039 3703c84,0 169,-4 253,2 61,3 119,45 134,106 5,28 24,73 -13,87 -111,58 -215,145 -346,153 -105,6 -211,3 -316,3 -31,2 -58,-17 -83,-33 -3,84 -33,173 -105,222 -69,47 -156,35 -235,32 -4,-29 -9,-58 -13,-87 53,-4 106,2 158,-6 57,-12 106,-65 103,-126 0,-92 1,-185 -1,-277 30,-3 61,-4 91,-4 1,51 -6,102 5,152 22,37 70,36 107,37 113,-2 229,7 340,-17 78,-22 144,-74 217,-107 -10,-30 -39,-49 -70,-49 -72,-5 -145,-2 -217,-5 -4,-28 -8,-57 -11,-85z"/>
   <path class="fil1" d="M482 3777c30,0 59,0 89,0 1,50 -4,101 4,150 20,37 68,37 105,38 107,0 214,0 320,0 25,0 59,-4 65,-34 8,-51 3,-104 4,-155 30,0 60,0 90,0 -4,67 12,138 -14,202 -21,44 -66,80 -117,76 -121,0 -242,0 -363,0 -33,2 -63,-13 -93,-27 -5,82 -33,172 -106,218 -73,48 -163,30 -245,33 -110,5 -207,-91 -217,-198 -5,-71 -1,-143 -2,-215 30,0 59,1 89,3 -1,67 -3,134 0,201 4,72 77,122 145,118 54,-2 111,7 163,-10 48,-19 84,-67 82,-120 1,-93 -1,-187 0,-280z"/>
   <path class="fil1" d="M865 4145c37,-21 100,1 92,51 -1,69 -135,57 -119,-13 2,-17 13,-31 28,-38z"/>
   <path class="fil1" d="M1032 4145c32,-18 90,-7 92,37 18,73 -117,80 -119,13 -1,-20 9,-40 27,-50z"/>
   <path class="fil1" d="M2963 4144c28,-13 69,-9 85,20 8,21 9,52 -11,67 -28,15 -67,14 -93,-7 -20,-25 -11,-67 19,-80z"/>
   <path class="fil1" d="M3130 4145c37,-21 100,1 92,51 0,63 -118,61 -119,1 -2,-21 9,-42 28,-51z"/>
  </g>
 </g>
</svg>
